<?xml version="1.0" encoding="UTF-8" standalone="no"?>
<!-- Created with Inkscape (http://www.inkscape.org/) -->

<svg
   xmlns:dc="http://purl.org/dc/elements/1.1/"
   xmlns:cc="http://creativecommons.org/ns#"
   xmlns:rdf="http://www.w3.org/1999/02/22-rdf-syntax-ns#"
   xmlns:svg="http://www.w3.org/2000/svg"
   xmlns="http://www.w3.org/2000/svg"
   xmlns:sodipodi="http://sodipodi.sourceforge.net/DTD/sodipodi-0.dtd"
   xmlns:inkscape="http://www.inkscape.org/namespaces/inkscape"
   width="512"
   height="512"
   viewBox="0 0 512.00001 512.00001"
   id="svg4177"
   version="1.1"
   inkscape:version="0.91 r"
   sodipodi:docname="atoz.svg">
  <defs
     id="defs4179" />
  <sodipodi:namedview
     id="base"
     pagecolor="#ffffff"
     bordercolor="#666666"
     borderopacity="1.0"
     inkscape:pageopacity="0.0"
     inkscape:pageshadow="2"
     inkscape:zoom="0.35"
     inkscape:cx="-55"
     inkscape:cy="520"
     inkscape:document-units="px"
     inkscape:current-layer="layer1"
     showgrid="false"
     units="px"
     inkscape:window-width="1920"
     inkscape:window-height="1028"
     inkscape:window-x="0"
     inkscape:window-y="0"
     inkscape:window-maximized="1" />
  <metadata
     id="metadata4182">
    <rdf:RDF>
      <cc:Work
         rdf:about="">
        <dc:format>image/svg+xml</dc:format>
        <dc:type
           rdf:resource="http://purl.org/dc/dcmitype/StillImage" />
        <dc:title></dc:title>
      </cc:Work>
    </rdf:RDF>
  </metadata>
  <g
     inkscape:label="Layer 1"
     inkscape:groupmode="layer"
     id="layer1"
     transform="translate(0,-540.36216)">
    <g
       style="font-style:normal;font-variant:normal;font-weight:normal;font-stretch:normal;font-size:463.95202637px;line-height:125%;font-family:'Ubuntu Condensed';-inkscape-font-specification:'Ubuntu Condensed, ';letter-spacing:0px;word-spacing:0px;fill:#000000;fill-opacity:1;stroke:none;stroke-width:1px;stroke-linecap:butt;stroke-linejoin:miter;stroke-opacity:1"
       id="text4957">
      <path
         id="path4815"
         style=""
         d="m 508.7524,668.54348 q -13.91856,24.58946 -31.08479,57.99401 -17.16622,32.94059 -34.33245,68.20094 -16.70227,34.79641 -32.01269,68.20095 -14.84646,33.40455 -24.58945,58.45796 l 125.26704,0 0,35.7243 -169.80644,0 0,-25.51736 q 6.95928,-18.55808 16.23832,-40.82778 9.27904,-22.26969 19.94994,-45.93125 10.6709,-24.1255 21.80574,-48.25101 11.59881,-24.1255 22.73365,-46.85915 11.5988,-22.73365 21.80575,-42.68359 10.6709,-20.41389 19.48598,-35.72431 l -115.988,0 0,-35.7243 160.5274,0 0,32.94059 z m -273.10826,130.83447 85.83112,0 0,37.58012 -85.83112,0 0,-37.58012 z M 129.44262,635.60289 q 11.13484,34.7964 21.80574,70.52071 11.13485,35.26035 21.34179,74.23232 10.6709,38.97197 20.87785,82.58346 10.67089,43.61149 21.34179,94.18226 l -41.75568,0 q -3.71162,-20.87784 -7.88719,-41.29173 -3.71161,-20.41389 -7.88718,-40.82778 l -101.141545,0 q -4.63952,20.41389 -8.351136,40.82778 -3.711616,20.41389 -7.423233,41.29173 l -40.36382580926517,0 Q 10.206945,906.55087 20.877841,862.93938 31.548738,819.32789 41.755683,780.35592 52.426579,741.38395 63.097476,706.1236 74.232324,670.39929 85.367173,635.60289 l 44.075447,0 z M 106.70897,682.926 Q 95.110166,721.43401 84.439269,760.40598 73.768372,799.37795 64.02538,840.20573 l 84.90322,0 Q 139.64956,799.37795 128.97866,760.40598 118.30777,721.43401 106.70897,682.926 Z" />
    </g>
  </g>
</svg>
