<?xml version="1.0" encoding="UTF-8" standalone="no"?>
<!-- Created with Inkscape (http://www.inkscape.org/) -->

<svg
   xmlns:dc="http://purl.org/dc/elements/1.1/"
   xmlns:cc="http://creativecommons.org/ns#"
   xmlns:rdf="http://www.w3.org/1999/02/22-rdf-syntax-ns#"
   xmlns:svg="http://www.w3.org/2000/svg"
   xmlns="http://www.w3.org/2000/svg"
   xmlns:sodipodi="http://sodipodi.sourceforge.net/DTD/sodipodi-0.dtd"
   xmlns:inkscape="http://www.inkscape.org/namespaces/inkscape"
   width="512"
   height="512"
   viewBox="0 0 512.00001 512.00001"
   id="svg2"
   version="1.1"
   inkscape:version="0.91 r"
   sodipodi:docname="goto.svg">
  <defs
     id="defs4" />
  <sodipodi:namedview
     id="base"
     pagecolor="#ffffff"
     bordercolor="#666666"
     borderopacity="1.0"
     inkscape:pageopacity="0.0"
     inkscape:pageshadow="2"
     inkscape:zoom="1.4"
     inkscape:cx="382.87476"
     inkscape:cy="231.43997"
     inkscape:document-units="px"
     inkscape:current-layer="layer1"
     showgrid="false"
     units="px"
     inkscape:window-width="1920"
     inkscape:window-height="1028"
     inkscape:window-x="0"
     inkscape:window-y="0"
     inkscape:window-maximized="1" />
  <metadata
     id="metadata7">
    <rdf:RDF>
      <cc:Work
         rdf:about="">
        <dc:format>image/svg+xml</dc:format>
        <dc:type
           rdf:resource="http://purl.org/dc/dcmitype/StillImage" />
        <dc:title></dc:title>
      </cc:Work>
    </rdf:RDF>
  </metadata>
  <g
     inkscape:label="Layer 1"
     inkscape:groupmode="layer"
     id="layer1"
     transform="translate(0,-540.36216)">
    <path
       id="path4153"
       style="fill:#ffffff;fill-opacity:1;fill-rule:evenodd;stroke:none;stroke-width:1px;stroke-linecap:butt;stroke-linejoin:miter;stroke-opacity:1"
       d="m 288.42673,638.64686 c -3.7008,0.47062 -7.49823,0.451 -11.19156,-0.075 -4.99817,-0.7119 -9.9748,-2.04342 -14.57155,-4.13112 -4.89395,-2.22268 -9.57548,-5.13672 -13.52001,-8.78799 -3.65653,-3.3847 -6.47514,-7.62524 -9.08843,-11.86755 -1.80891,-2.9365 -3.33831,-6.06877 -4.50666,-9.31379 -0.92569,-2.57103 -1.62505,-5.24891 -1.9529,-7.96177 -0.53169,-4.39954 -0.61775,-8.90639 0,-13.29467 0.68267,-4.84948 2.1607,-9.60521 4.05601,-14.12088 1.18023,-2.81196 2.66568,-5.53058 4.50666,-7.96179 2.51157,-3.31683 5.55381,-6.24599 8.78799,-8.8631 3.49305,-2.82658 7.29055,-5.34197 11.34178,-7.28578 3.6191,-1.73648 7.45805,-3.1667 11.41689,-3.83068 5.72879,-0.96083 11.69303,-1.08715 17.42578,-0.15024 4.31344,0.70494 8.44424,2.4085 12.39333,4.28133 3.71914,1.76377 7.29522,3.91296 10.50774,6.48641 2.37435,1.90202 4.46373,4.16451 6.37339,6.53272 1.61201,1.99907 3.04747,4.15686 4.24894,6.4265 1.7012,3.21364 3.01349,6.63483 4.14269,10.0912 0.89475,2.7387 1.72359,5.53153 2.07136,8.39163 0.52997,4.35845 0.54262,8.81478 0,13.17167 -0.37465,3.0082 -1.2157,5.96004 -2.23069,8.81652 -1.11118,3.12721 -2.61957,6.10843 -4.19581,9.02898 -0.70234,1.30134 -1.45848,2.58132 -2.33691,3.77091 -2.62367,3.55303 -5.30857,7.16791 -8.71029,9.98498 -2.21229,1.83206 -4.88031,3.04327 -7.43563,4.35514 -2.98236,1.53113 -6.02691,2.97405 -9.1883,4.08959 -2.71377,0.95759 -5.48906,1.85379 -8.34382,2.21682 z m 76.6453,407.53894 c -1.61917,1.0863 -3.16185,2.3322 -4.93938,3.1336 -1.91543,0.8635 -3.97345,1.4646 -6.05472,1.7527 -2.59549,0.3591 -5.27554,0.3753 -7.8605,-0.053 -2.59586,-0.4303 -5.21982,-1.1638 -7.48874,-2.4963 -4.54915,-2.6717 -8.18876,-6.7242 -11.68455,-10.6754 -9.06868,-10.2501 -16.12026,-22.1281 -23.79398,-33.4603 -14.57138,-21.51837 -28.17699,-43.6752 -42.2237,-65.53968 -8.44379,-13.14321 -16.89683,-26.28064 -25.28111,-39.4619 -10.55232,-16.58974 -21.45007,-32.97006 -31.49516,-49.87176 -2.93166,-4.93273 -5.87357,-9.87444 -8.39163,-15.03058 -1.29863,-2.65914 -2.86067,-5.27961 -3.45225,-8.17918 -1.13252,-5.5509 -0.41699,-11.34213 -0.0532,-16.9957 0.25116,-3.90292 0.8541,-7.7811 1.54023,-11.63143 1.1333,-6.35957 2.87481,-12.59581 4.24894,-18.90772 2.15529,-9.89997 4.01003,-19.86523 6.26716,-29.74248 1.43388,-6.27473 3.01593,-12.5152 4.62072,-18.7484 0.49361,-1.91722 2.65284,-4.0985 1.54023,-5.73604 -0.2604,-0.38325 -0.91764,-0.14957 -1.3809,-0.15933 -0.72764,-0.0151 -1.50352,-0.11508 -2.17758,0.15933 -5.18967,2.11338 -8.49891,7.30759 -12.853,10.83476 -8.95964,7.25804 -21.34158,11.37248 -27.29934,21.24463 -8.49268,14.07258 -5.84249,32.35014 -8.6572,48.54398 -2.14317,12.3303 -3.06174,24.92105 -6.26717,37.01877 -0.50207,1.89487 -0.95146,3.87903 -2.01822,5.52359 -0.89936,1.38649 -2.23422,2.46355 -3.55849,3.45225 -2.08339,1.55546 -4.29147,3.13421 -6.79828,3.82405 -2.76608,0.76119 -5.79339,0.78744 -8.60408,0.21244 -1.75412,-0.35884 -3.35754,-1.29862 -4.88626,-2.23069 -2.07747,-1.26664 -4.21094,-2.61861 -5.73604,-4.51449 -1.55343,-1.93107 -2.68583,-4.27641 -3.2398,-6.69205 -0.6965,-3.03704 -0.21038,-6.23887 0,-9.34763 0.55007,-8.12866 2.11981,-16.15656 3.29291,-24.21889 1.29754,-8.91756 2.81728,-17.80166 4.14269,-26.71511 2.18041,-14.66321 1.59164,-29.96169 6.26717,-44.0295 0.88457,-2.6615 2.27877,-5.19699 4.03648,-7.38251 5.81162,-7.22614 13.93627,-12.23789 20.97907,-18.27038 9.03653,-7.74023 18.25256,-15.26908 27.29935,-22.9973 8.12091,-6.93729 15.81531,-14.38702 24.21887,-20.97907 2.16823,-1.70083 4.33711,-3.44022 6.74519,-4.78006 1.71247,-0.95281 3.56388,-1.64745 5.41737,-2.28379 2.32334,-0.79763 4.6798,-1.60484 7.11695,-1.91201 11.99764,-1.51212 24.48006,-2.24056 36.2752,0.42489 3.2528,0.73507 6.30277,2.35288 9.08209,4.19581 2.2143,1.46827 4.1406,3.36934 5.89537,5.36428 2.46853,2.80639 4.60866,5.92258 6.4265,9.18829 1.7898,3.21532 2.84181,6.79 4.35516,10.14431 2.72265,6.03474 5.79521,11.90799 8.49784,17.95172 2.84694,6.36645 5.25623,12.92333 8.12607,19.2795 2.04626,4.53211 4.32694,8.95468 6.47962,13.43722 3.51712,7.32375 6.61395,14.86211 10.51609,21.98819 0.66067,1.20651 1.16915,2.56983 2.17758,3.50537 6.73406,6.24714 16.21933,8.63125 24.43132,12.74678 11.50353,5.76512 23.27536,10.98341 34.78808,16.73015 5.54725,2.76899 11.51362,4.89056 16.5177,8.55096 1.49538,1.09384 2.78028,2.4776 3.93026,3.93025 0.98193,1.24036 1.77036,2.63085 2.49624,4.03649 0.79358,1.53673 1.67012,3.08588 2.01824,4.78003 0.61294,2.98279 0.864,6.20001 0.0532,9.13519 -0.3638,1.31697 -1.2779,2.43293 -2.12446,3.50537 -1.24883,1.58201 -2.65744,3.08376 -4.30204,4.24892 -1.28567,0.91087 -2.71459,1.71288 -4.24892,2.07135 -3.17213,0.74112 -6.55903,0.5871 -9.77254,0.0532 -4.25286,-0.70663 -8.19833,-2.68454 -12.21566,-4.24892 -9.93851,-3.87011 -19.65732,-8.28887 -29.3707,-12.69367 -11.83504,-5.36692 -23.94619,-10.25464 -35.21296,-16.73015 -4.35108,-2.50077 -8.87289,-4.9558 -12.4281,-8.49785 -6.07759,-6.05505 -10.01512,-13.94394 -14.60569,-21.19151 -0.88714,-1.40062 -1.05953,-3.47463 -2.49624,-4.30204 -0.67503,-0.38876 -1.72376,-0.48047 -2.33691,0 -3.84619,3.01391 -2.38827,9.47692 -3.50536,14.2339 -3.00664,12.80354 -5.19275,25.8042 -8.60408,38.50589 -1.20835,4.49913 -4.20219,8.67244 -4.19581,13.331 0.003,1.98764 0.95357,3.88726 1.80578,5.68294 2.9012,6.11301 7.49872,11.26735 11.10032,16.99572 7.2465,11.52556 14.07552,23.30842 21.1384,34.94741 9.04296,14.90197 18.17401,29.75044 27.19313,44.66683 8.45181,13.97815 16.95864,27.9244 25.22801,42.01125 7.78053,13.25413 17.17409,25.74821 22.9442,39.99301 1.24129,3.0644 2.03276,6.3325 2.44312,9.6132 0.13847,1.1067 0.1627,2.2426 0,3.346 -0.36685,2.4879 -1.29679,4.8677 -2.17758,7.2232 -0.67996,1.8184 -1.15644,3.8121 -2.39002,5.3112 -1.42017,1.7258 -3.61449,2.6318 -5.4705,3.8771 z m -254.5084,-0.1363 c -1.70031,-1.5527 -3.7093,-2.8475 -5.03244,-4.732 -1.15993,-1.652 -2.00355,-3.5797 -2.40356,-5.5582 -0.54083,-2.6751 -0.30446,-5.4845 0.075,-8.1871 0.33956,-2.4182 0.92264,-4.8466 1.9529,-7.0605 6.40512,-13.7636 17.20402,-25.01744 25.76311,-37.55553 10.80208,-15.82383 24.17033,-30.19531 32.29776,-47.54534 6.27609,-13.39789 8.16264,-28.4419 12.24312,-42.6631 2.62926,-9.16345 -1.50048,-25.82835 7.88666,-27.49067 21.05108,-3.72781 34.90041,30.64302 37.78089,51.82666 1.85964,13.67616 -8.83845,26.20237 -14.57156,38.75734 -1.11221,2.43564 -2.39866,4.798 -3.83066,7.06045 -13.58673,21.46589 -28.82095,41.92269 -44.99155,61.51599 -7.02536,8.5123 -13.4573,17.9806 -22.53333,24.2609 -2.44693,1.6932 -5.34253,2.8059 -8.26223,3.38 -2.06359,0.4058 -4.24545,0.4043 -6.30934,0 -2.14901,-0.421 -4.2242,-1.3226 -6.08399,-2.4787 -1.50625,-0.9363 -2.67117,-2.3342 -3.98082,-3.5302 z"
       inkscape:connector-curvature="0"
       sodipodi:nodetypes="ssssssssssssssssssssssssssssssssssssssssssssssssssssssssssssssssssssssssssssssssssssssssssssssssssssssssssssssssssssssssssssssssss" />
  </g>
</svg>
